<?xml version="1.0" encoding="utf-8"?>
<!-- Generator: Adobe Illustrator 16.0.0, SVG Export Plug-In . SVG Version: 6.00 Build 0)  -->
<!DOCTYPE svg PUBLIC "-//W3C//DTD SVG 1.1//EN" "http://www.w3.org/Graphics/SVG/1.1/DTD/svg11.dtd">
<svg version="1.1" id="Layer_1" xmlns="http://www.w3.org/2000/svg" xmlns:xlink="http://www.w3.org/1999/xlink" x="0px" y="0px"
	 width="300.622px" height="191.824px" viewBox="0 0 300.622 191.824" enable-background="new 0 0 300.622 191.824"
	 xml:space="preserve">
<path fill="#FFFFFF" d="M259.831,38.665c-9.504,0-16.848,2.879-22.104,8.928v-6.624h-33.193v95.041h33.553V90.217
	c0-16.057,4.32-21.096,13.609-21.096c8.135,0,12.238,5.04,12.238,14.832v52.056h33.553V80.712
	C297.487,53.424,282.583,38.665,259.831,38.665z"/>
<path fill="#FFFFFF" d="M161.918,45.864c-5.326-3.816-11.52-6.12-18.432-6.912c-1.872-0.216-3.815-0.288-5.832-0.288
	c-13.176,0-24.264,4.824-33.191,14.328c-8.929,9.504-13.393,21.384-13.393,35.424c0,14.185,4.464,26.063,13.393,35.568
	c9.144,9.504,20.376,14.113,34.199,14.113c1.656,0,3.24-0.072,4.824-0.217c7.633-0.793,13.824-3.6,18.792-8.279v6.408h32.761V0
	h-33.121V45.864L161.918,45.864z M143.487,108.072c-10.655,0-18.792-8.135-18.792-19.656c0-11.448,8.137-19.872,18.792-19.872
	c10.656,0,18.792,8.424,18.792,19.872C162.279,99.937,154.359,108.072,143.487,108.072z"/>
<path fill="#FFFFFF" d="M52.199,108.072c-10.296,0-18.647-8.135-18.647-19.583c0-11.447,8.928-19.729,19.008-19.729
	c7.2,0,13.248,2.88,18.072,8.856l21.744-20.52c-9.505-12.24-23.257-18.432-41.112-18.432c-14.185,0-26.208,4.68-36.288,14.184
	C5.04,62.136,0,73.944,0,88.488c0,14.545,5.04,26.354,14.976,35.641c10.08,9.358,22.104,14.039,36.288,14.039
	c18.432,0,32.399-6.623,41.904-19.654L71.424,97.776C66.743,104.544,60.336,108.072,52.199,108.072z"/>
<g enable-background="new    ">
	<path fill="#FFFFFF" d="M42.666,176.823c2,0,3.8-1,5.4-3l3.56,4c-2.774,2.88-5.774,4.32-9,4.32c-3.227,0-5.954-1.021-8.18-3.061
		c-2.227-2.04-3.34-4.706-3.34-8c0-3.293,1.126-5.973,3.38-8.04c2.253-2.066,4.926-3.1,8.02-3.1c1.546,0,3.113,0.32,4.7,0.96
		c1.586,0.64,2.98,1.587,4.18,2.84l-3.12,4.08c-0.693-0.826-1.54-1.466-2.54-1.92c-1-0.453-1.994-0.68-2.98-0.68
		c-1.574,0-2.927,0.514-4.06,1.54c-1.134,1.026-1.7,2.453-1.7,4.279c0,1.827,0.566,3.247,1.7,4.261
		C39.819,176.317,41.146,176.823,42.666,176.823z"/>
	<path fill="#FFFFFF" d="M76.786,171.063c0,3.12-1.08,5.747-3.24,7.88c-2.16,2.134-4.874,3.2-8.14,3.2c-3.267,0-5.98-1.066-8.14-3.2
		c-2.16-2.133-3.24-4.76-3.24-7.88s1.08-5.753,3.24-7.9c2.16-2.146,4.873-3.22,8.14-3.22c3.266,0,5.98,1.073,8.14,3.22
		C75.706,165.31,76.786,167.943,76.786,171.063z M60.066,171.063c0,1.76,0.5,3.193,1.5,4.3s2.28,1.66,3.84,1.66
		s2.84-0.554,3.84-1.66s1.5-2.54,1.5-4.3s-0.5-3.2-1.5-4.32s-2.28-1.68-3.84-1.68s-2.84,0.56-3.84,1.68
		S60.066,169.303,60.066,171.063z"/>
	<path fill="#FFFFFF" d="M100.985,170.223v11.6h-6.04v-11.76c0-1.706-0.26-2.96-0.78-3.76c-0.52-0.801-1.36-1.2-2.52-1.2
		c-1.16,0-2.187,0.434-3.08,1.3c-0.894,0.867-1.34,2.14-1.34,3.82v11.6h-6v-21.52h6v2.439c1.653-1.866,3.546-2.8,5.68-2.8
		c1.36,0,2.593,0.399,3.7,1.2c1.106,0.8,1.94,1.773,2.5,2.92c0.826-1.307,1.94-2.32,3.34-3.04s2.806-1.08,4.22-1.08
		c2.533,0,4.573,0.754,6.12,2.26c1.546,1.507,2.32,3.687,2.32,6.54v13.08h-6.04v-11.76c0-3.307-1.214-4.96-3.64-4.96
		c-1.2,0-2.24,0.434-3.12,1.3C101.425,167.27,100.985,168.542,100.985,170.223z"/>
	<path fill="#FFFFFF" d="M134.425,171.903v-11.6h6.04v21.52h-6.04v-2.84c-1.494,2.106-3.42,3.16-5.78,3.16s-4.34-0.74-5.94-2.221
		c-1.6-1.479-2.4-3.673-2.4-6.58v-13.039h6.04v11.72c0,3.307,1.213,4.96,3.64,4.96c1.2,0,2.24-0.434,3.12-1.3
		S134.425,173.556,134.425,171.903z"/>
	<path fill="#FFFFFF" d="M152.145,169.823v12h-6v-21.52h6v2.399c1.812-1.84,3.854-2.76,6.119-2.76c2.267,0,4.167,0.8,5.701,2.399
		c1.533,1.601,2.299,3.734,2.299,6.4v13.08h-6v-12.16c0-3.306-1.213-4.96-3.64-4.96c-1.2,0-2.247,0.434-3.14,1.3
		C152.59,166.87,152.145,168.143,152.145,169.823z"/>
	<path fill="#FFFFFF" d="M172.204,157.563c-0.68-0.681-1.02-1.514-1.02-2.5s0.34-1.82,1.02-2.5c0.681-0.681,1.514-1.021,2.5-1.021
		s1.82,0.34,2.5,1.021c0.681,0.68,1.021,1.514,1.021,2.5s-0.34,1.819-1.021,2.5c-0.68,0.68-1.514,1.02-2.5,1.02
		S172.884,158.243,172.204,157.563z M177.704,181.823h-6v-21.52h6V181.823z"/>
	<path fill="#FFFFFF" d="M193.704,176.823c2,0,3.801-1,5.4-3l3.561,4c-2.774,2.88-5.774,4.32-9,4.32
		c-3.228,0-5.955-1.021-8.181-3.061c-2.228-2.04-3.34-4.706-3.34-8c0-3.293,1.126-5.973,3.38-8.04c2.253-2.066,4.926-3.1,8.02-3.1
		c1.547,0,3.113,0.32,4.701,0.96c1.586,0.64,2.979,1.587,4.18,2.84l-3.121,4.08c-0.693-0.826-1.539-1.466-2.539-1.92
		c-1-0.453-1.994-0.68-2.98-0.68c-1.574,0-2.927,0.514-4.06,1.54c-1.134,1.026-1.7,2.453-1.7,4.279c0,1.827,0.566,3.247,1.7,4.261
		C190.857,176.317,192.184,176.823,193.704,176.823z"/>
	<path fill="#FFFFFF" d="M224.944,181.823h-5.641v-2.6c-1.547,1.946-3.46,2.92-5.74,2.92c-2.279,0-4.193-0.66-5.74-1.98
		s-2.319-3.08-2.319-5.28c0-2.199,0.8-3.846,2.399-4.939c1.601-1.093,3.787-1.64,6.561-1.64h4.48v-0.12
		c0-2.294-1.215-3.44-3.641-3.44c-1.04,0-2.141,0.207-3.3,0.62c-1.16,0.414-2.14,0.927-2.94,1.54l-2.68-3.88
		c2.826-2.054,6.053-3.08,9.68-3.08c2.613,0,4.746,0.653,6.4,1.96c1.652,1.307,2.48,3.374,2.48,6.2V181.823z M218.903,173.623v-1.04
		h-3.76c-2.4,0-3.6,0.747-3.6,2.24c0,0.773,0.286,1.367,0.859,1.78c0.574,0.413,1.394,0.62,2.461,0.62
		c1.066,0,2.006-0.326,2.819-0.98C218.497,175.589,218.903,174.716,218.903,173.623z"/>
	<path fill="#FFFFFF" d="M240.784,176.823c2,0,3.799-1,5.399-3l3.56,4c-2.16,2.24-4.533,3.613-7.119,4.12l-1.08,2
		c1.732,0.586,2.6,1.6,2.6,3.04c0,1.146-0.474,2.146-1.42,3c-0.947,0.853-2.141,1.28-3.58,1.28s-2.84-0.428-4.2-1.28l1.521-3.44
		c0.586,0.507,1.105,0.761,1.56,0.761c0.453,0,0.806-0.12,1.06-0.36s0.381-0.54,0.381-0.9c0-0.359-0.16-0.68-0.48-0.96
		c-0.32-0.279-0.699-0.42-1.141-0.42c-0.439,0-0.913,0.12-1.42,0.36l1.641-3.12c-2.533-0.533-4.641-1.76-6.32-3.68
		s-2.52-4.294-2.52-7.12c0-3.307,1.126-5.993,3.38-8.061c2.253-2.066,4.927-3.1,8.021-3.1c1.546,0,3.113,0.32,4.699,0.96
		s2.98,1.587,4.18,2.84l-3.119,4.08c-0.693-0.826-1.541-1.466-2.541-1.92c-1-0.453-1.993-0.68-2.979-0.68
		c-1.573,0-2.927,0.514-4.06,1.54c-1.134,1.026-1.7,2.453-1.7,4.279c0,1.827,0.566,3.247,1.7,4.261
		C237.936,176.317,239.263,176.823,240.784,176.823z"/>
	<path fill="#FFFFFF" d="M272.023,181.823h-5.64v-2.6c-1.547,1.946-3.461,2.92-5.74,2.92c-2.28,0-4.193-0.66-5.74-1.98
		s-2.32-3.08-2.32-5.28c0-2.199,0.801-3.846,2.4-4.939c1.6-1.093,3.786-1.64,6.561-1.64h4.479v-0.12c0-2.294-1.214-3.44-3.64-3.44
		c-1.041,0-2.141,0.207-3.301,0.62c-1.16,0.414-2.14,0.927-2.939,1.54l-2.68-3.88c2.826-2.054,6.053-3.08,9.68-3.08
		c2.613,0,4.746,0.653,6.4,1.96c1.652,1.307,2.479,3.374,2.479,6.2V181.823z M260.223,155.303c-0.827,0-1.227,0.693-1.2,2.079h-4.24
		c0-2,0.433-3.572,1.3-4.72c0.867-1.146,1.98-1.72,3.34-1.72c0.854,0,1.887,0.367,3.101,1.1c1.213,0.734,1.953,1.101,2.22,1.101
		c0.826,0,1.227-0.693,1.2-2.08h4.239c0,2-0.434,3.573-1.299,4.72c-0.867,1.146-1.98,1.72-3.34,1.72c-0.828,0-1.867-0.366-3.121-1.1
		S260.436,155.303,260.223,155.303z M265.983,173.623v-1.04h-3.76c-2.4,0-3.6,0.747-3.6,2.24c0,0.773,0.285,1.367,0.859,1.78
		c0.573,0.413,1.393,0.62,2.46,0.62c1.066,0,2.007-0.326,2.819-0.98C265.577,175.589,265.983,174.716,265.983,173.623z"/>
	<path fill="#FFFFFF" d="M299.022,171.063c0,3.12-1.08,5.747-3.239,7.88c-2.16,2.134-4.874,3.2-8.14,3.2
		c-3.268,0-5.98-1.066-8.141-3.2c-2.16-2.133-3.24-4.76-3.24-7.88s1.08-5.753,3.24-7.9c2.16-2.146,4.873-3.22,8.141-3.22
		c3.266,0,5.979,1.073,8.14,3.22C297.942,165.31,299.022,167.943,299.022,171.063z M282.303,171.063c0,1.76,0.5,3.193,1.5,4.3
		s2.279,1.66,3.84,1.66c1.56,0,2.84-0.554,3.84-1.66s1.5-2.54,1.5-4.3s-0.5-3.2-1.5-4.32s-2.28-1.68-3.84-1.68
		c-1.561,0-2.84,0.56-3.84,1.68S282.303,169.303,282.303,171.063z"/>
</g>
</svg>
